<svg xmlns="http://www.w3.org/2000/svg" width="1.8in" height="2in" data-name="Layer 1" viewBox="0 0 132.2 143.5"><path fill="#36243a" d="M71 .5L0 65.3 5.5 68 71 6l54.5 62 6.7-2.7L71 .5z"/><path fill="#36243a" d="M9.6 31.7v31.5l15.9-21V31.7H9.6z"/><ellipse cx="22.5" cy="81.3" fill="#c7b3aa" rx="13.8" ry="15.7"/><ellipse cx="50" cy="54" fill="#c7b3aa" rx="13.8" ry="15.7"/><ellipse cx="84" cy="56" fill="#c7b3aa" rx="13.8" ry="15.7"/><ellipse cx="111.5" cy="85.1" fill="#c7b3aa" rx="13.8" ry="15.7"/><path fill="#c7b3aa" d="M48.8 107.8c-2.7 0-5.1 1.7-5.1 4.6s2.3 4.6 5.1 4.6 5.1-1.7 5.1-4.6-2.3-4.6-5.1-4.6zm0 0c-2.7 0-5.1 1.7-5.1 4.6s2.3 4.6 5.1 4.6 5.1-1.7 5.1-4.6-2.3-4.6-5.1-4.6zm0 0c-2.7 0-5.1 1.7-5.1 4.6s2.3 4.6 5.1 4.6 5.1-1.7 5.1-4.6-2.3-4.6-5.1-4.6zm0 0c-2.7 0-5.1 1.7-5.1 4.6s2.3 4.6 5.1 4.6 5.1-1.7 5.1-4.6-2.3-4.6-5.1-4.6zm0 0c-2.7 0-5.1 1.7-5.1 4.6s2.3 4.6 5.1 4.6 5.1-1.7 5.1-4.6-2.3-4.6-5.1-4.6zm0 0c-2.7 0-5.1 1.7-5.1 4.6s2.3 4.6 5.1 4.6 5.1-1.7 5.1-4.6-2.3-4.6-5.1-4.6zm0 0c-2.7 0-5.1 1.7-5.1 4.6s2.3 4.6 5.1 4.6 5.1-1.7 5.1-4.6-2.3-4.6-5.1-4.6zm34 2.6L81 114h3.7zm0 0L81 114h3.7zm-34-2.6c-2.7 0-5.1 1.7-5.1 4.6s2.3 4.6 5.1 4.6 5.1-1.7 5.1-4.6-2.3-4.6-5.1-4.6zm62 5.1c-3.5-8.5-11.6-9.7-16.5-16.4s-.5-9.6-11-20a26.9 26.9 0 0 0-18.7-7.8c-16.8-.5-22.3 20.7-29 26.3S8 108.3 21.8 121.4c5.5 5.2 16.6 7.3 29.9 7.8H73c12.2-.6 22.6-2.1 24-2.6 6.4-1.9 17.3-5.2 13.8-13.7zm-73.1 7.7H26.8v-16.4h4.1v12.6h6.9zm11.1.3c-5.2 0-9.3-3.2-9.3-8.5s4.1-8.4 9.3-8.4 9.3 3.2 9.3 8.4-4.1 8.4-9.3 8.4zm20.6-7.2v6.9h-4v-6.9l-6.8-9.5h4.9l3.9 6.1 4.1-6.1h4.8zm18.6 6.9l-1.7-3.4h-6.8l-1.7 3.4h-4.4l8.6-16.5h1.8l8.7 16.4zm17.6 0H94.7v-16.4h4.1v12.6h6.9zM81 114h3.7l-1.9-3.7zm-32.2-6.3c-2.7 0-5.1 1.7-5.1 4.6s2.3 4.7 5.1 4.7 5.1-1.7 5.1-4.6-2.3-4.6-5.1-4.6zm0 0c-2.7 0-5.1 1.7-5.1 4.6s2.3 4.7 5.1 4.7 5.1-1.7 5.1-4.6-2.3-4.6-5.1-4.6zm0 0c-2.7 0-5.1 1.7-5.1 4.6s2.3 4.7 5.1 4.7 5.1-1.7 5.1-4.6-2.3-4.6-5.1-4.6zm0 0c-2.7 0-5.1 1.7-5.1 4.6s2.3 4.7 5.1 4.7 5.1-1.7 5.1-4.6-2.3-4.6-5.1-4.6zm0 0c-2.7 0-5.1 1.7-5.1 4.6s2.3 4.7 5.1 4.7 5.1-1.7 5.1-4.6-2.3-4.6-5.1-4.6zm0 0c-2.7 0-5.1 1.7-5.1 4.6s2.3 4.7 5.1 4.7 5.1-1.7 5.1-4.6-2.3-4.6-5.1-4.6zm0 0c-2.7 0-5.1 1.7-5.1 4.6s2.3 4.7 5.1 4.7 5.1-1.7 5.1-4.6-2.3-4.6-5.1-4.6z"/><path fill="#36243a" d="M21.6 143.5h-4.4v-10.1h4.3c3.5 0 5.9 1.9 5.9 5.1s-2.3 5-5.8 5zm.1-7.9h-2v5.5h2c2 0 3.3-1 3.3-2.8s-1.3-2.7-3.3-2.7zm13.2 8.1c-3.2 0-5.8-2-5.8-5.2s2.5-5.2 5.8-5.2 5.8 2 5.8 5.2-2.6 5.2-5.8 5.2zm0-8.1a2.9 2.9 0 1 0 0 5.7 2.9 2.9 0 1 0 0-5.7zm13.3 8c-3.3 0-5.9-2-5.9-5.2s2.4-5.2 5.8-5.2a9 9 0 0 1 4.6 1.4v2.3a10.6 10.6 0 0 0-4.6-1.4 3 3 0 0 0-3.3 3c0 1.9 1.6 3 3.4 3a4.5 4.5 0 0 0 2.2-.5v-2.6H53v3.6a7.6 7.6 0 0 1-4.8 1.6zm17.9-.1l-3.2-4.1H62v4.1h-2.5v-10.1h3.3c2.6 0 3.4 1.4 3.4 3a2.3 2.3 0 0 1-1.1 2.2l4.2 4.9zm-3.4-7.9H62v1.7h.7a.8.8 0 1 0 0-1.7zm7.3 7.9v-10.1h6.4v2.3h-3.9v1.5h2.4v2.1h-2.4v1.9h4.3v2.3zm11.8.2a7 7 0 0 1-3.5-1v-2.3a7.3 7.3 0 0 0 3.4 1.1c.4 0 1.1-.1 1.2-.8s-.7-.9-1.2-1.1l-.9-.4c-1.4-.6-2.4-1.3-2.4-3.1s1.4-2.9 3.4-2.9a6.4 6.4 0 0 1 3.3.8v2.3a6.9 6.9 0 0 0-3.1-.9c-.5 0-1 .1-1 .7s.6.7 1 .9l1 .4c1.3.6 2.5 1.2 2.6 2.9s-1.7 3.4-3.8 3.4zm11.1 0c-3.3 0-5.8-2-5.8-5.2s2.4-5.2 5.8-5.2a8.5 8.5 0 0 1 4.4 1.4v2.3a8.6 8.6 0 0 0-4.4-1.4 2.9 2.9 0 1 0 0 5.7 8.7 8.7 0 0 0 4.4-1.5v2.5a8.1 8.1 0 0 1-4.4 1.4zm11.8-.1c-3.2 0-5.1-2-5.1-5.2v-5.1h2.5v5.1c0 1.7.9 2.8 2.6 2.8s2.6-1.1 2.6-2.8v-5.1h2.5v5.1a4.8 4.8 0 0 1-5.1 5.2zm7.9-.1v-10.1h6.4v2.3h-3.9v1.5h2.4v2.1h-2.4v1.9h4.3v2.3z"/></svg>